<svg xmlns="http://www.w3.org/2000/svg" width="860" height="560" viewBox="0 0 860 560" font-family="system-ui, sans-serif">
<rect width="100%" height="100%" fill="#fafafa"/>
<text x="430" y="24" text-anchor="middle" font-size="15" font-weight="600">log(wk1 streams) vs log(ML) — 58 closed releases</text>
<text x="430.0" y="548" text-anchor="middle" font-size="12">log(monthly_listeners_at_release)</text>
<text x="18" y="280.0" text-anchor="middle" font-size="12" transform="rotate(-90 18 280.0)">log(actual wk1 streams)</text>
<line x1="72" y1="504.0" x2="72" y2="36.0" stroke="#222" stroke-width="1"/>
<line x1="72.0" y1="504.0" x2="836.0" y2="504.0" stroke="#222" stroke-width="1"/>
<line x1="312.0" y1="504.0" x2="312.0" y2="36.0" stroke="#e5e5e5"/>
<text x="312.0" y="522.0" text-anchor="middle" font-size="11" fill="#444">100k</text>
<line x1="482.1" y1="504.0" x2="482.1" y2="36.0" stroke="#e5e5e5"/>
<text x="482.1" y="522.0" text-anchor="middle" font-size="11" fill="#444">500k</text>
<line x1="628.6" y1="504.0" x2="628.6" y2="36.0" stroke="#e5e5e5"/>
<text x="628.6" y="522.0" text-anchor="middle" font-size="11" fill="#444">2M</text>
<line x1="725.5" y1="504.0" x2="725.5" y2="36.0" stroke="#e5e5e5"/>
<text x="725.5" y="522.0" text-anchor="middle" font-size="11" fill="#444">5M</text>
<line x1="798.8" y1="504.0" x2="798.8" y2="36.0" stroke="#e5e5e5"/>
<text x="798.8" y="522.0" text-anchor="middle" font-size="11" fill="#444">10M</text>
<polyline fill="none" stroke="#111" stroke-width="1.4" stroke-dasharray="0" points="72.0,296.2 81.7,294.3 91.3,292.4 101.0,290.5 110.7,288.6 120.4,286.7 130.0,284.8 139.7,282.9 149.4,281.0 159.0,279.1 168.7,277.2 178.4,275.3 188.1,273.4 197.7,271.5 207.4,269.6 217.1,267.7 226.7,265.8 236.4,263.9 246.1,262.0 255.7,260.1 265.4,258.2 275.1,256.3 284.8,254.4 294.4,252.5 304.1,250.6 313.8,248.7 323.4,246.8 333.1,244.9 342.8,243.0 352.5,241.1 362.1,239.2 371.8,237.3 381.5,235.4 391.1,233.5 400.8,231.6 410.5,229.7 420.2,227.8 429.8,225.9 439.5,224.0 449.2,222.1 458.8,220.2 468.5,218.3 478.2,216.4 487.8,214.5 497.5,212.6 507.2,210.7 516.9,208.8 526.5,206.9 536.2,205.0 545.9,203.1 555.5,201.2 565.2,199.3 574.9,197.3 584.6,195.4 594.2,193.5 603.9,191.6 613.6,189.7 623.2,187.8 632.9,185.9 642.6,184.0 652.3,182.1 661.9,180.2 671.6,178.3 681.3,176.4 690.9,174.5 700.6,172.6 710.3,170.7 719.9,168.8 729.6,166.9 739.3,165.0 749.0,163.1 758.6,161.2 768.3,159.3 778.0,157.4 787.6,155.5 797.3,153.6 807.0,151.7 816.7,149.8 826.3,147.9 836.0,146.0"/>
<polyline fill="none" stroke="#111" stroke-width="1.4" stroke-dasharray="6 4" points="72.0,298.0 81.7,296.1 91.3,294.2 101.0,292.3 110.7,290.4 120.4,288.5 130.0,286.6 139.7,284.7 149.4,282.8 159.0,280.9 168.7,279.0 178.4,277.1 188.1,275.2 197.7,273.3 207.4,271.4 217.1,269.5 226.7,267.6 236.4,265.7 246.1,263.8 255.7,261.9 265.4,260.0 275.1,258.1 284.8,256.2 294.4,254.3 304.1,252.4 313.8,250.5 323.4,248.6 333.1,246.7 342.8,244.8 352.5,242.9 362.1,241.0 371.8,239.1 381.5,237.2 391.1,235.3 400.8,233.4 410.5,231.5 420.2,229.6 429.8,227.7 439.5,225.8 449.2,223.9 458.8,222.0 468.5,220.1 478.2,218.2 487.8,216.3 497.5,214.4 507.2,212.5 516.9,210.6 526.5,208.7 536.2,206.8 545.9,204.9 555.5,203.0 565.2,201.1 574.9,199.2 584.6,197.3 594.2,195.4 603.9,193.5 613.6,191.6 623.2,189.7 632.9,187.8 642.6,185.9 652.3,184.0 661.9,182.1 671.6,180.2 681.3,178.3 690.9,176.4 700.6,174.5 710.3,172.6 719.9,170.7 729.6,168.8 739.3,166.9 749.0,165.0 758.6,163.1 768.3,161.2 778.0,159.3 787.6,157.4 797.3,155.5 807.0,153.6 816.7,151.7 826.3,149.8 836.0,147.9"/>
<circle cx="748.2" cy="463.2" r="5" fill="#b42318" fill-opacity="0.82" stroke="#fff" stroke-width="0.8"><title>Light Down - Kasango Remix (Kasango) ML=6,200,000 wk1=3,415</title></circle>
<circle cx="668.6" cy="107.6" r="5" fill="#8a2c8a" fill-opacity="0.82" stroke="#fff" stroke-width="0.8"><title>Fall Back To Nothing (Subtronics) ML=2,920,000 wk1=435,526</title></circle>
<circle cx="242.9" cy="471.7" r="5" fill="#9a6d00" fill-opacity="0.82" stroke="#fff" stroke-width="0.8"><title>Everybody High - Chesster Remix (Caleb Jackson) ML=52,000 wk1=3,039</title></circle>
<circle cx="490.2" cy="248.4" r="5" fill="#2155a3" fill-opacity="0.82" stroke="#fff" stroke-width="0.8"><title>Valley Of Violence - Borgore Remix (Zomboy) ML=540,000 wk1=63,833</title></circle>
<circle cx="316.1" cy="313.6" r="5" fill="#1f6f4a" fill-opacity="0.82" stroke="#fff" stroke-width="0.8"><title>Certified - sumthin sumthin Remix (Eazy Baked) ML=104,000 wk1=26,228</title></circle>
<circle cx="667.9" cy="349.5" r="5" fill="#8a2c8a" fill-opacity="0.82" stroke="#fff" stroke-width="0.8"><title>Eyes Cut Deeper - Mport Remix (Subtronics) ML=2,900,000 wk1=16,077</title></circle>
<circle cx="387.3" cy="414.9" r="5" fill="#1f6f4a" fill-opacity="0.82" stroke="#fff" stroke-width="0.8"><title>Satisfy (Pretty Girl) ML=204,000 wk1=6,592</title></circle>
<circle cx="387.3" cy="294.5" r="5" fill="#1f6f4a" fill-opacity="0.82" stroke="#fff" stroke-width="0.8"><title>Body Step (Pretty Girl) ML=204,000 wk1=34,039</title></circle>
<circle cx="659.5" cy="264.1" r="5" fill="#8a2c8a" fill-opacity="0.82" stroke="#fff" stroke-width="0.8"><title>Merida (Rhye) ML=2,679,000 wk1=51,509</title></circle>
<circle cx="574.8" cy="155.5" r="5" fill="#2155a3" fill-opacity="0.82" stroke="#fff" stroke-width="0.8"><title>Bass Cannon (Flux's Version) - Crankdat Remix (Crankdat) ML=1,202,000 wk1=226,684</title></circle>
<circle cx="428.1" cy="258.2" r="5" fill="#1f6f4a" fill-opacity="0.82" stroke="#fff" stroke-width="0.8"><title>Steppin (Boogie T) ML=300,000 wk1=55,828</title></circle>
<circle cx="476.2" cy="211.7" r="5" fill="#1f6f4a" fill-opacity="0.82" stroke="#fff" stroke-width="0.8"><title>Love Is The Dance (Âme) ML=473,000 wk1=105,276</title></circle>
<circle cx="628.6" cy="221.0" r="5" fill="#8a2c8a" fill-opacity="0.82" stroke="#fff" stroke-width="0.8"><title>Last Forever (Club Mix) (Bob Moses) ML=2,000,000 wk1=92,691</title></circle>
<circle cx="658.7" cy="224.2" r="5" fill="#8a2c8a" fill-opacity="0.82" stroke="#fff" stroke-width="0.8"><title>For The Girls (Hayden James) ML=2,658,000 wk1=88,782</title></circle>
<circle cx="541.4" cy="233.2" r="5" fill="#2155a3" fill-opacity="0.82" stroke="#fff" stroke-width="0.8"><title>Psychedelic Symphony (Big Gigantic) ML=876,000 wk1=78,512</title></circle>
<circle cx="489.7" cy="248.0" r="5" fill="#2155a3" fill-opacity="0.82" stroke="#fff" stroke-width="0.8"><title>Freak No More (AC Slater) ML=537,000 wk1=64,150</title></circle>
<circle cx="568.0" cy="110.3" r="5" fill="#2155a3" fill-opacity="0.82" stroke="#fff" stroke-width="0.8"><title>Its Called Freefall (Griz Remix) (Griz) ML=1,127,000 wk1=419,766</title></circle>
<circle cx="429.2" cy="246.9" r="5" fill="#1f6f4a" fill-opacity="0.82" stroke="#fff" stroke-width="0.8"><title>Telekinesis (Zingara) ML=303,000 wk1=65,122</title></circle>
<circle cx="709.6" cy="187.3" r="5" fill="#8a2c8a" fill-opacity="0.82" stroke="#fff" stroke-width="0.8"><title>Ultra Love RYOS Remix (KSHMR) ML=4,300,000 wk1=146,763</title></circle>
<circle cx="660.0" cy="149.2" r="5" fill="#8a2c8a" fill-opacity="0.82" stroke="#fff" stroke-width="0.8"><title>Hold On (Rhye) ML=2,690,000 wk1=246,709</title></circle>
<circle cx="482.1" cy="186.0" r="5" fill="#2155a3" fill-opacity="0.82" stroke="#fff" stroke-width="0.8"><title>Ankaa (CloZee) ML=500,000 wk1=149,552</title></circle>
<circle cx="541.5" cy="197.6" r="5" fill="#2155a3" fill-opacity="0.82" stroke="#fff" stroke-width="0.8"><title>beautiful colors (big gigantic) ML=877,000 wk1=127,667</title></circle>
<circle cx="533.6" cy="276.6" r="5" fill="#2155a3" fill-opacity="0.82" stroke="#fff" stroke-width="0.8"><title>Crossroads City (Gramatik) ML=814,000 wk1=43,480</title></circle>
<circle cx="506.5" cy="270.3" r="5" fill="#2155a3" fill-opacity="0.82" stroke="#fff" stroke-width="0.8"><title>OBSESSED (BORGORE) ML=630,000 wk1=47,365</title></circle>
<circle cx="660.4" cy="164.5" r="5" fill="#8a2c8a" fill-opacity="0.82" stroke="#fff" stroke-width="0.8"><title>Fatal (RHYE) ML=2,700,000 wk1=200,290</title></circle>
<circle cx="410.5" cy="199.7" r="5" fill="#1f6f4a" fill-opacity="0.82" stroke="#fff" stroke-width="0.8"><title>Fara (O'Flynn) ML=254,000 wk1=124,086</title></circle>
<circle cx="704.5" cy="87.9" r="5" fill="#8a2c8a" fill-opacity="0.82" stroke="#fff" stroke-width="0.8"><title>Your loving (Duke Dumot) ML=4,100,000 wk1=569,707</title></circle>
<circle cx="628.6" cy="248.1" r="5" fill="#8a2c8a" fill-opacity="0.82" stroke="#fff" stroke-width="0.8"><title>Higher Ground (Bob Moses) ML=2,000,000 wk1=64,121</title></circle>
<circle cx="628.6" cy="239.6" r="5" fill="#8a2c8a" fill-opacity="0.82" stroke="#fff" stroke-width="0.8"><title>Freaks (Joshwa) ML=2,000,000 wk1=71,982</title></circle>
<circle cx="562.5" cy="102.2" r="5" fill="#2155a3" fill-opacity="0.82" stroke="#fff" stroke-width="0.8"><title>Movement (Crankdat) ML=1,070,000 wk1=468,885</title></circle>
<circle cx="529.9" cy="270.2" r="5" fill="#2155a3" fill-opacity="0.82" stroke="#fff" stroke-width="0.8"><title>Ashiko (O'Flynn) ML=786,000 wk1=47,407</title></circle>
<circle cx="710.5" cy="207.5" r="5" fill="#8a2c8a" fill-opacity="0.82" stroke="#fff" stroke-width="0.8"><title>Bass Down Low (KSHMR) ML=4,337,000 wk1=111,467</title></circle>
<circle cx="490.8" cy="227.7" r="5" fill="#2155a3" fill-opacity="0.82" stroke="#fff" stroke-width="0.8"><title>Bromance is Dead (Zomboy) ML=543,000 wk1=84,712</title></circle>
<circle cx="661.5" cy="166.4" r="5" fill="#8a2c8a" fill-opacity="0.82" stroke="#fff" stroke-width="0.8"><title>Close Your Mouth (Rhye) ML=2,730,000 wk1=195,298</title></circle>
<circle cx="691.6" cy="68.3" r="5" fill="#8a2c8a" fill-opacity="0.82" stroke="#fff" stroke-width="0.8"><title>Eyes Cut Deeper (Subtronics) ML=3,630,000 wk1=744,126</title></circle>
<circle cx="234.4" cy="382.1" r="5" fill="#9a6d00" fill-opacity="0.82" stroke="#fff" stroke-width="0.8"><title>Foreva (Caleb Jackson) ML=48,000 wk1=10,308</title></circle>
<circle cx="313.0" cy="229.1" r="5" fill="#1f6f4a" fill-opacity="0.82" stroke="#fff" stroke-width="0.8"><title>Fresh Baked Bread (Eazy Baked) ML=101,000 wk1=83,040</title></circle>
<circle cx="124.7" cy="365.6" r="5" fill="#9a6d00" fill-opacity="0.82" stroke="#fff" stroke-width="0.8"><title>Hustle (Zen Selekta) ML=17,000 wk1=12,922</title></circle>
<circle cx="783.3" cy="95.1" r="5" fill="#b42318" fill-opacity="0.82" stroke="#fff" stroke-width="0.8"><title>Is it over Now? (Elderbrook) ML=8,640,000 wk1=515,951</title></circle>
<circle cx="714.4" cy="216.7" r="5" fill="#8a2c8a" fill-opacity="0.82" stroke="#fff" stroke-width="0.8"><title>Khoye Yahaan Reimagined (KSHMR) ML=4,500,000 wk1=98,312</title></circle>
<circle cx="458.5" cy="236.6" r="5" fill="#1f6f4a" fill-opacity="0.82" stroke="#fff" stroke-width="0.8"><title>KOOLAID MAN (LSDREAM) ML=400,000 wk1=74,971</title></circle>
<circle cx="628.6" cy="193.4" r="5" fill="#8a2c8a" fill-opacity="0.82" stroke="#fff" stroke-width="0.8"><title>leave like this (bob moses) ML=2,000,000 wk1=135,101</title></circle>
<circle cx="628.6" cy="216.2" r="5" fill="#8a2c8a" fill-opacity="0.82" stroke="#fff" stroke-width="0.8"><title>Lets Get Ill (Joshwa) ML=2,000,000 wk1=99,007</title></circle>
<circle cx="427.4" cy="300.3" r="5" fill="#1f6f4a" fill-opacity="0.82" stroke="#fff" stroke-width="0.8"><title>Marathon (Boogie T) ML=298,000 wk1=31,482</title></circle>
<circle cx="553.2" cy="241.7" r="5" fill="#2155a3" fill-opacity="0.82" stroke="#fff" stroke-width="0.8"><title>Lotis Eater (Boogie T) ML=980,000 wk1=69,925</title></circle>
<circle cx="735.6" cy="280.6" r="5" fill="#b42318" fill-opacity="0.82" stroke="#fff" stroke-width="0.8"><title>Need your love (Cedric Gervais) ML=5,500,000 wk1=41,164</title></circle>
<circle cx="628.6" cy="150.7" r="5" fill="#8a2c8a" fill-opacity="0.82" stroke="#fff" stroke-width="0.8"><title>On My Mind (Bob Moses) ML=2,000,000 wk1=242,039</title></circle>
<circle cx="659.3" cy="224.5" r="5" fill="#8a2c8a" fill-opacity="0.82" stroke="#fff" stroke-width="0.8"><title>One I Want (Hayden James) ML=2,674,000 wk1=88,421</title></circle>
<circle cx="459.3" cy="180.7" r="5" fill="#1f6f4a" fill-opacity="0.82" stroke="#fff" stroke-width="0.8"><title>Pull Me Closer (LSDREAM) ML=403,000 wk1=160,631</title></circle>
<circle cx="623.2" cy="115.2" r="5" fill="#2155a3" fill-opacity="0.82" stroke="#fff" stroke-width="0.8"><title>Rump Shaker (Griz) ML=1,900,000 wk1=392,498</title></circle>
<circle cx="336.4" cy="303.2" r="5" fill="#1f6f4a" fill-opacity="0.82" stroke="#fff" stroke-width="0.8"><title>Shifting The Lens (Steller) ML=126,000 wk1=30,241</title></circle>
<circle cx="737.3" cy="297.8" r="5" fill="#b42318" fill-opacity="0.82" stroke="#fff" stroke-width="0.8"><title>STOMP (Cedric Gervais) ML=5,590,000 wk1=32,561</title></circle>
<circle cx="535.0" cy="269.9" r="5" fill="#2155a3" fill-opacity="0.82" stroke="#fff" stroke-width="0.8"><title>The Montauk (gramatik) ML=825,000 wk1=47,618</title></circle>
<circle cx="466.2" cy="253.6" r="5" fill="#1f6f4a" fill-opacity="0.82" stroke="#fff" stroke-width="0.8"><title>The Other Side (Level Up) ML=430,000 wk1=59,488</title></circle>
<circle cx="490.2" cy="199.9" r="5" fill="#2155a3" fill-opacity="0.82" stroke="#fff" stroke-width="0.8"><title>Time Machine (Zomboy) ML=540,000 wk1=123,642</title></circle>
<circle cx="626.0" cy="155.9" r="5" fill="#2155a3" fill-opacity="0.82" stroke="#fff" stroke-width="0.8"><title>When I'm Hot (Griz) ML=1,950,000 wk1=225,215</title></circle>
<circle cx="628.6" cy="204.6" r="5" fill="#8a2c8a" fill-opacity="0.82" stroke="#fff" stroke-width="0.8"><title>Work Your Body (Joshwa) ML=2,000,000 wk1=116,036</title></circle>
<circle cx="554.8" cy="96.4" r="5" fill="#2155a3" fill-opacity="0.82" stroke="#fff" stroke-width="0.8"><title>World is Mine (Kasbo) ML=995,000 wk1=507,176</title></circle>
<circle cx="72" cy="48" r="5" fill="#9a6d00"/>
<text x="82" y="52" font-size="11" fill="#333"><100k</text>
<circle cx="217" cy="48" r="5" fill="#1f6f4a"/>
<text x="227" y="52" font-size="11" fill="#333">100k-500k</text>
<circle cx="362" cy="48" r="5" fill="#2155a3"/>
<text x="372" y="52" font-size="11" fill="#333">500k-2M</text>
<circle cx="507" cy="48" r="5" fill="#8a2c8a"/>
<text x="517" y="52" font-size="11" fill="#333">2M-5M</text>
<circle cx="652" cy="48" r="5" fill="#b42318"/>
<text x="662" y="52" font-size="11" fill="#333">5M+</text>
<line x1="797" y1="48" x2="825" y2="48" stroke="#111" stroke-width="1.4"/>
<text x="831" y="52" font-size="11">live OLS (ed=1)</text>
</svg>
